<?xml version="1.0" encoding="utf-8"?>

<!DOCTYPE svg PUBLIC "-//W3C//DTD SVG 1.1//EN" "http://www.w3.org/Graphics/SVG/1.1/DTD/svg11.dtd">
<svg version="1.1" id="Layer_1" xmlns="http://www.w3.org/2000/svg" xmlns:xlink="http://www.w3.org/1999/xlink" x="0px" y="0px"
	 viewBox="0 0 1770 1653.333" enable-background="new 0 0 1770 1653.333" xml:space="preserve">
<g>
	<path fill="#FAB519" stroke="#FAB519" d="M740.513,43.895c41.325-8.579,83.312-13.824,125.422-16.275
		c49.806-1.593,99.906-1.912,149.369,4.902c101.475,12.084,200.425,43.874,290.453,92.161
		c79.832,42.796,152.237,99.906,211.21,168.781c46.889,53.875,79.685,119.074,99.146,187.581
		c9.535,33.139,16.447,66.988,21.667,101.083c11.422,70.64,18.996,141.991,20.761,213.563c2.794,39.953,2.353,80.15-0.123,120.128
		c-0.27,32.771-3.284,65.419-6.618,97.994c-0.858,7.035-0.49,14.143,0.686,21.153c-13.187,3.75-27.182,4.755-39.756,10.564
		c-13.849,6.373-26.692,15.393-36.374,27.281c-7.353,8.922-13.603,18.677-20.099,28.212c-15.466-13.603-28.114-29.928-41.301-45.639
		c-67.944-85.102-116.451-184.714-148.119-288.615c-1.569-5.098-5.319-9.044-9.682-11.912
		c-63.973-40.443-120.569-91.401-173.488-145.227c-32.967-33.678-64.218-69.047-94.023-105.568
		c-19.118,34.07-32.648,70.983-45.639,107.749c-15.001,46.522-27.795,94.195-31.595,143.119c-4.02,30.786-0.319,61.816,6.888,91.842
		c-77.503-21.717-144.932-70.027-199.494-128.192c-35.467-38.065-66.743-80.003-93.607-124.539
		c-10.025-16.422-18.506-33.727-28.138-50.37c-14.216,14.854-24.119,33.065-33.776,51.031
		c-26.055,50.174-38.85,105.887-46.326,161.575c-6.103,37.453-5.613,75.518-9.927,113.167c-34.095-3.775-64.61-21.521-92.97-39.732
		c-17.427-11.741-34.781-23.751-50.492-37.771c-18.236-16.03-37.232-31.349-53.507-49.438
		c-15.025-16.839-31.815-31.987-46.35-49.242c-12.402-13.922-24.07-28.433-36.546-42.281
		c-21.864,33.31-39.168,69.586-51.889,107.357c-19.339,57.257-29.094,119.196-17.501,179.149
		c-16.741,5.858-32.992,14.51-44.389,28.433c-30.075,36.497-40.933,85.714-38.654,132.162c-3.897-10.883-8.015-21.717-11.569-32.722
		c-4.338-12.599-8.701-25.957-18.457-35.492c-6.839-6.593-14.584-12.182-21.3-18.947c4.02-11.863,4.804-26.374-4.265-36.178
		c-14.952-17.795-23.138-40.075-28.114-62.503c-12.648-60.027-11.324-121.696-9.902-182.679
		c2.892-103.754,22.501-208.612,69.488-301.875c37.992-76.596,89.538-147.531,156.33-201.528
		c42.551-33.997,91.033-59.488,139.81-83.239c43.825-20.54,88.901-38.408,134.638-54.193
		C634.332,71.274,686.736,54.704,740.513,43.895z"/>
	<path fill="#FBD7C1" stroke="#FBD7C1" d="M1044.006,611.811c12.991-36.766,26.521-73.68,45.639-107.749
		c29.805,36.521,61.057,71.89,94.023,105.568c52.919,53.826,109.515,104.784,173.488,145.227c4.363,2.868,8.113,6.814,9.682,11.912
		c31.668,103.901,80.175,203.513,148.119,288.615c13.187,15.711,25.834,32.036,41.301,45.639
		c6.495-9.535,12.746-19.29,20.099-28.212c3.285,6.79,5.343,14.216,4.289,21.839c-2.794,26.864-2.108,53.948-4.314,80.861
		c-1.495,35.982-5.221,71.768-8.064,107.651c-6.888,5.098-14.878,10.27-17.256,19.094c-4.584,14.878-6.544,30.443-11.545,45.223
		c-14.609,46.62-38.899,90.347-71.964,126.427c-25.05,27.771-55.566,50.125-87.626,69.145
		c-78.729,43.923-168.267,63.9-257.119,74.292c-122.113,13.432-245.231,10.221-367.662,3.628
		c-106.745-6.887-214.69-21.569-314.253-62.551c-31.987-13.873-63.066-30.296-91.009-51.228
		c-36.595-27.06-67.576-61.865-89.268-101.916c-18.898-36.325-30.933-76.131-35.443-116.819
		c-1.201-12.476-7.157-27.452-20.663-30.491c-14.339-1.373-28.874,2.451-43.139-0.956c6.544-0.098,13.064-0.613,19.584-0.98
		c0.711-30.148,0.956-60.321-1.201-90.396c-1.152-22.525-0.809-45.173-3.971-67.552c-2.28-46.448,8.579-95.666,38.654-132.162
		c11.398-13.922,27.648-22.575,44.389-28.433c-11.594-59.953-1.838-121.892,17.501-179.149
		c12.721-37.771,30.026-74.047,51.889-107.357c12.476,13.849,24.143,28.359,36.546,42.281c14.535,17.256,31.325,32.403,46.35,49.242
		c16.275,18.089,35.271,33.408,53.507,49.438c15.711,14.02,33.065,26.031,50.492,37.771c28.359,18.211,58.875,35.957,92.97,39.732
		c4.314-37.649,3.824-75.714,9.927-113.167c7.476-55.688,20.271-111.402,46.326-161.575c9.657-17.966,19.56-36.178,33.776-51.031
		c9.633,16.643,18.113,33.948,28.138,50.37c26.864,44.536,58.14,86.474,93.607,124.539
		c54.561,58.164,121.99,106.475,199.494,128.192c-7.206-30.026-10.907-61.057-6.888-91.842
		C1016.21,706.006,1029.005,658.332,1044.006,611.811 M512.832,994.645c-20.197,8.456-33.163,27.011-48.629,41.62
		c34.658-10.221,70.934-14.265,106.965-14.584c32.354,1.912,66.253,1.078,96.377,14.78c-13.456-26.839-41.742-42.33-69.905-49.242
		C569.574,979.816,539.279,982.953,512.832,994.645 M1081.066,999.278c-15.589,9.878-26.643,25.074-40.345,37.232
		c44.708-13.064,91.964-17.084,138.339-13.334c22.207,1.618,45.051,3.554,65.493,13.187c-12.427-25.197-38.531-40.369-64.684-47.845
		C1147.245,978.713,1110.797,982.635,1081.066,999.278 M670.583,1223.846c-1.936,6.471-2.843,14.167,1.863,19.756
		c20.908,27.746,46.105,52.674,75.616,71.228c39.977,24.829,87.675,35.149,134.368,34.83c40.835-1.029,82.699-11.545,115.961-36.08
		c23.8-17.795,43.482-44.389,45.835-74.782c-7.035,9.118-10.981,20.099-17.819,29.339c-16.373,22.82-40.762,38.972-67.111,48.041
		c-37.158,12.893-77.013,15.172-116.034,14.51c-32.722-0.662-65.444-9.829-92.798-28.04c-29.143-19.462-52.184-46.522-72.969-74.366
		C675.51,1226.297,673.99,1222.375,670.583,1223.846z"/>
	<path fill="#7A3650" stroke="#7A3650" d="M512.832,994.645c26.447-11.692,56.743-14.829,84.807-7.427
		c28.163,6.912,56.448,22.403,69.905,49.242c-30.124-13.701-64.022-12.868-96.377-14.78c-36.031,0.319-72.307,4.363-106.965,14.584
		C479.669,1021.656,492.635,1003.101,512.832,994.645z"/>
	<path fill="#7A3651" stroke="#7A3651" d="M1081.066,999.278c29.732-16.643,66.179-20.565,98.803-10.76
		c26.153,7.476,52.257,22.648,64.684,47.845c-20.442-9.633-43.286-11.569-65.493-13.187c-46.375-3.75-93.631,0.27-138.339,13.334
		C1054.423,1024.352,1065.477,1009.156,1081.066,999.278z"/>
	<path fill="#F9C7AE" stroke="#F9C7AE" d="M103.575,1021.926c8.089-1.176,15.172-5.245,20.834-11.005
		c6.716,6.765,14.461,12.353,21.3,18.947c9.755,9.535,14.118,22.893,18.457,35.492c3.554,11.005,7.672,21.839,11.569,32.722
		c3.162,22.378,2.819,45.026,3.971,67.552c2.157,30.075,1.912,60.248,1.201,90.396c-6.52,0.368-13.04,0.882-19.584,0.98
		c-38.335-5.074-73.998-26.178-98.583-55.811c-14.559-17.158-27.035-36.962-31.57-59.267c-6.618-30.124-0.882-63.63,18.775-87.896
		C62.813,1036.828,82.618,1025.774,103.575,1021.926z"/>
	<path fill="#F9C7AE" stroke="#F9C7AE" d="M1652.487,1034.965c4.804,5.049,9.241,11.03,15.981,13.628
		c11.569,4.51,23.996,7.598,33.997,15.368c38.384,28.359,49.365,84.906,28.776,127.138c-28.482,60.076-96.891,98.313-162.972,92.063
		c2.843-35.884,6.569-71.67,8.064-107.651c2.206-26.913,1.52-53.997,4.314-80.861c1.054-7.623-1.005-15.049-4.289-21.839
		c9.682-11.888,22.526-20.908,36.374-27.281C1625.304,1039.72,1639.3,1038.716,1652.487,1034.965z"/>
	<path fill="#D26A7B" stroke="#D26A7B" d="M670.583,1223.846c3.407-1.471,4.927,2.451,6.912,4.436
		c20.785,27.844,43.825,54.904,72.969,74.366c27.354,18.211,60.076,27.379,92.798,28.04c39.021,0.662,78.876-1.618,116.034-14.51
		c26.349-9.069,50.737-25.222,67.111-48.041c6.838-9.241,10.785-20.221,17.819-29.339c-2.353,30.393-22.035,56.988-45.835,74.782
		c-33.261,24.535-75.126,35.051-115.961,36.08c-46.693,0.319-94.391-10-134.368-34.83c-29.511-18.555-54.708-43.482-75.616-71.228
		C667.74,1238.013,668.647,1230.317,670.583,1223.846z"/>
</g>
</svg>
