<?xml version="1.0" encoding="UTF-8"?>
<svg width="459px" height="530px" viewBox="0 0 459 530" version="1.1" xmlns="http://www.w3.org/2000/svg" xmlns:xlink="http://www.w3.org/1999/xlink">
    <!-- Generator: Sketch 45.1 (43504) - http://www.bohemiancoding.com/sketch -->
    <title>BottomBG</title>
    <desc>Created with Sketch.</desc>
    <defs></defs>
    <g id="Page-1" stroke="none" stroke-width="1" fill="none" fill-rule="evenodd">
        <g id="Cloud-Landing-Page" transform="translate(-981.000000, -3579.000000)" fill="#959A9E">
            <g id="BGs" transform="translate(-169.000000, -260.000000)">
                <g id="Sect-5-CTA" transform="translate(1150.000000, 3839.000000)">
                    <path d="M490.80254,73.4078887 C593.157685,142.864263 660.134534,279.225646 610.406141,441.340587 C540.545519,669.083812 183.193273,733.406164 54.8008364,568.819132 C-52.2383539,431.587822 9.55020673,100.776128 147.404499,47.3122022 C182.405653,33.7355193 288.034212,25.9792028 329.440508,24.4104158 C326.154591,22.5933767 322.929101,20.7325283 319.759869,18.7986646 C311.112721,13.5123532 349.745678,-4.6476077 361.645404,2.63097972 C402.522452,27.6126605 454.476184,41.2248081 490.80254,73.4078887 Z M390.481038,603.582783 C567.355845,553.070763 659.546945,261.877199 494.646875,128.434343 C488.097962,124.003355 481.592807,119.872772 475.112655,115.900737 C472.760214,115.393802 470.872427,114.498842 469.861856,113.011415 C469.75559,112.859126 469.630571,112.723526 469.51597,112.564978 C458.433036,105.978994 447.431363,100.108559 436.498451,94.8431096 C426.221888,100.068923 411.034163,105.190428 404.197707,101.721156 C383.563319,91.2340651 363.443594,79.0092092 341.781967,70.7084069 C328.623717,65.6703476 316.219748,63.2608411 303.722014,61.8610325 C256.214791,61.2164112 208.524208,72.2083508 158.972924,93.6644332 C40.0110878,145.173634 9.61063258,408.91134 77.9481055,522.45647 C128.303678,606.117459 281.610319,634.674806 390.481038,603.582783 Z M148.939206,191.641143 C191.676954,177.880879 202.768223,241.717157 172.086475,249.581954 C125.148089,255.606763 126.533716,200.087976 148.939206,191.641143 Z M351.824218,200.175595 C369.606088,189.235809 386.296126,191.620282 398.114589,211.76626 C404.146756,241.700468 376.098742,262.002908 358.15018,252.738303 C340.207869,243.498732 337.449116,208.317849 351.824218,200.175595 Z M434.355516,331.914063 C434.897265,323.586141 435.263987,322.319846 431.334223,320.742715 C423.170482,318.733749 421.880702,325.757826 419.351151,330.276433 C325.434789,453.61605 131.653245,392.145469 105.803481,313.626847 C104.417854,309.498351 102.184181,297.989045 96.0415805,298.783869 C88.9884248,299.693432 88.8717404,303.314993 88.2674819,306.936555 C87.5423717,468.000075 408.678695,500.074675 434.355516,331.914063 Z" id="BottomBG"></path>
                </g>
            </g>
        </g>
    </g>
</svg>